<?xml version="1.0" encoding="UTF-8" ?>
<!DOCTYPE svg PUBLIC "-//W3C//DTD SVG 1.1//EN" "http://www.w3.org/Graphics/SVG/1.1/DTD/svg11.dtd">
<svg width="512pt" height="512pt" viewBox="0 0 512 512" version="1.1" xmlns="http://www.w3.org/2000/svg">
<g id="#1a58dcff">
<path fill="#1a58dc" opacity="1.00" d=" M 151.19 53.19 C 169.76 45.95 190.27 50.10 208.36 56.76 L 208.37 57.26 C 210.74 57.92 213.00 58.90 215.31 59.76 L 215.42 60.74 C 215.90 60.61 216.85 60.35 217.32 60.22 L 217.40 61.73 C 217.89 61.60 218.86 61.35 219.35 61.22 L 219.40 62.75 C 219.89 62.61 220.87 62.33 221.36 62.19 L 221.39 63.74 C 221.87 63.60 222.84 63.33 223.33 63.19 L 223.37 64.70 C 223.83 64.60 224.75 64.40 225.21 64.30 L 225.46 65.28 C 228.38 66.48 231.05 68.15 233.69 69.84 C 239.88 73.48 245.61 77.77 251.52 81.81 L 251.38 82.18 C 253.07 82.95 254.42 84.24 255.70 85.55 C 256.56 85.55 257.43 85.55 258.31 85.55 C 259.59 84.24 260.91 82.91 262.63 82.19 L 262.48 81.82 C 267.88 78.32 272.80 74.04 278.64 71.23 L 278.41 70.73 C 278.94 70.48 280.00 69.99 280.53 69.74 C 283.10 68.06 285.71 66.42 288.56 65.27 L 288.78 64.30 C 289.24 64.40 290.17 64.60 290.63 64.70 L 290.66 63.21 C 291.15 63.34 292.12 63.60 292.61 63.74 L 292.65 62.19 C 293.13 62.33 294.11 62.61 294.59 62.75 L 294.66 61.21 C 295.15 61.34 296.12 61.60 296.61 61.73 L 296.67 60.22 C 297.14 60.35 298.09 60.60 298.57 60.73 L 298.70 59.75 C 301.00 58.89 303.27 57.93 305.65 57.26 L 305.65 56.76 C 317.03 52.80 328.83 49.27 341.00 49.40 C 350.19 49.26 359.42 51.25 367.70 55.26 C 372.04 57.14 375.63 60.25 379.58 62.78 L 379.37 63.18 C 382.45 64.91 384.91 67.57 386.81 70.52 L 387.21 70.55 C 390.46 75.48 394.34 80.05 396.65 85.54 C 405.87 106.00 407.43 129.00 405.98 151.13 C 405.60 157.79 404.43 164.36 404.09 171.02 C 427.55 180.14 450.34 192.75 467.52 211.47 C 470.92 215.48 474.24 219.59 476.85 224.18 C 478.87 227.32 480.55 230.67 481.89 234.15 C 487.55 247.65 487.40 263.27 481.86 276.78 C 480.48 280.62 478.41 284.15 476.36 287.67 C 475.32 289.27 474.28 290.86 473.25 292.47 L 472.87 292.52 C 468.51 299.09 462.82 304.73 456.79 309.77 C 455.10 311.22 453.42 312.68 451.54 313.87 L 451.44 314.21 C 449.19 315.85 446.99 317.58 444.50 318.84 L 444.48 319.27 C 440.83 321.48 437.34 323.97 433.49 325.83 L 433.20 326.73 C 432.88 326.68 432.24 326.57 431.92 326.52 C 426.25 330.37 419.91 333.34 413.53 335.80 C 413.44 335.94 413.26 336.21 413.17 336.34 C 411.04 337.15 408.94 338.01 406.84 338.88 C 405.91 339.22 404.98 339.56 404.05 339.88 C 404.81 350.59 406.50 361.24 406.39 372.00 C 406.51 388.18 404.66 404.62 398.84 419.81 C 397.98 422.30 396.89 424.73 395.54 427.00 L 395.77 428.14 C 395.53 428.23 395.03 428.41 394.78 428.50 C 393.00 432.94 390.04 436.72 387.20 440.51 L 386.87 440.50 C 382.39 446.99 375.61 451.50 368.85 455.34 C 366.86 456.24 364.87 457.10 362.85 457.91 C 344.07 464.88 323.22 461.20 305.13 453.91 C 303.01 453.00 300.89 452.13 298.74 451.34 L 298.51 450.91 C 294.87 449.63 291.50 447.74 288.15 445.87 C 277.51 439.89 267.03 433.35 257.87 425.25 C 255.47 425.67 253.79 427.51 251.90 428.88 C 240.66 437.38 228.69 445.05 215.86 450.93 C 213.53 451.97 211.18 452.97 208.82 453.93 C 190.73 461.21 169.90 464.88 151.14 457.91 C 149.12 457.10 147.13 456.23 145.15 455.33 C 138.38 451.52 131.60 446.98 127.13 440.50 L 126.79 440.53 C 123.97 436.72 120.99 432.95 119.22 428.51 C 118.97 428.42 118.47 428.24 118.21 428.15 L 118.48 427.01 C 117.09 424.74 116.02 422.31 115.16 419.80 C 106.77 397.60 106.44 373.26 109.00 349.94 C 109.48 346.60 109.80 343.24 109.95 339.88 C 109.01 339.56 108.08 339.22 107.16 338.88 C 105.06 338.00 102.95 337.14 100.82 336.34 C 100.73 336.21 100.55 335.94 100.46 335.81 C 94.08 333.32 87.72 330.37 82.07 326.50 C 81.75 326.57 81.13 326.70 80.82 326.76 L 80.52 325.83 C 75.48 323.27 70.78 320.11 66.19 316.82 C 64.85 315.84 63.53 314.83 62.19 313.85 C 60.48 312.54 58.86 311.14 57.20 309.77 C 52.43 305.86 48.00 301.45 44.15 296.63 C 43.14 295.36 42.13 294.10 41.15 292.80 C 39.69 290.89 38.31 288.92 37.16 286.81 C 35.20 283.62 33.44 280.30 32.14 276.79 C 26.59 263.28 26.46 247.66 32.10 234.16 C 33.47 230.67 35.12 227.30 37.16 224.16 C 42.35 215.36 49.40 207.76 57.16 201.18 C 60.01 198.67 63.06 196.39 66.11 194.13 C 67.20 193.41 68.30 192.71 69.45 192.09 L 69.42 191.62 C 70.33 191.14 71.25 190.67 72.16 190.20 C 74.68 188.27 77.40 186.65 80.18 185.15 C 89.68 179.65 99.63 174.86 109.92 171.02 C 108.22 154.45 106.44 137.73 108.33 121.09 C 109.67 107.40 112.93 93.74 119.36 81.50 C 121.38 77.55 124.36 74.23 126.80 70.56 L 127.19 70.52 C 129.08 67.56 131.55 64.92 134.62 63.18 L 134.39 62.73 C 135.75 61.83 137.13 60.94 138.62 60.23 L 138.44 59.74 C 140.72 58.34 143.01 56.97 145.35 55.68 C 147.27 54.79 149.20 53.92 151.19 53.19 M 148.60 74.72 C 146.67 76.41 144.79 78.16 142.86 79.87 C 138.55 84.52 135.37 90.06 132.81 95.83 C 124.39 117.65 125.16 141.65 127.90 164.49 C 128.41 164.32 129.44 163.98 129.95 163.81 C 127.00 166.09 128.91 170.32 128.65 173.46 C 125.55 174.07 122.39 174.30 119.24 174.55 C 118.80 175.07 118.35 175.59 117.91 176.11 C 116.01 175.63 114.03 175.59 112.08 175.65 C 112.41 176.06 113.08 176.89 113.41 177.30 C 112.76 178.20 112.10 179.08 111.45 179.98 C 112.00 183.09 112.67 186.18 113.53 189.23 C 108.55 191.29 103.68 193.61 98.79 195.86 C 87.82 201.45 77.24 207.90 67.88 215.94 C 65.52 218.24 63.07 220.43 60.80 222.82 C 57.06 227.19 53.51 231.74 50.86 236.87 C 50.61 237.35 50.11 238.31 49.86 238.79 C 47.99 243.65 46.31 248.68 46.29 253.94 C 45.76 259.64 47.46 265.10 48.80 270.55 C 48.96 270.60 49.28 270.70 49.44 270.75 C 49.84 271.90 50.24 273.06 50.64 274.22 C 53.03 278.51 55.93 282.47 58.85 286.41 L 59.20 286.52 C 61.73 289.74 64.70 292.58 67.80 295.23 C 69.48 296.49 71.07 297.85 72.67 299.21 C 74.03 300.18 75.36 301.18 76.68 302.20 C 78.68 303.49 80.66 304.83 82.62 306.20 C 85.33 307.87 88.09 309.49 90.85 311.10 C 91.34 311.38 92.33 311.93 92.82 312.20 C 96.82 314.37 101.01 316.16 104.96 318.41 L 106.19 318.18 C 106.27 318.43 106.43 318.93 106.51 319.18 C 108.93 319.89 111.25 320.87 113.58 321.83 C 116.37 310.22 119.20 298.59 123.14 287.29 C 124.95 281.52 126.89 275.78 129.12 270.16 C 130.66 265.77 132.36 261.44 134.31 257.21 L 134.25 257.82 C 136.31 248.45 141.77 240.31 145.05 231.38 C 149.10 226.67 150.72 220.36 154.14 215.19 C 156.04 211.45 158.03 207.76 160.19 204.18 C 163.95 197.37 167.95 190.70 172.17 184.17 C 173.12 182.53 174.12 180.90 175.17 179.31 C 176.49 177.28 177.82 175.26 179.29 173.33 C 179.50 172.71 179.92 171.48 180.13 170.86 C 185.03 163.73 190.40 156.92 195.12 149.66 C 195.39 149.62 195.92 149.54 196.19 149.49 C 197.68 147.43 199.25 145.43 200.73 143.37 L 201.09 143.45 C 205.55 136.92 211.01 131.13 216.18 125.16 C 224.31 115.91 233.15 107.29 242.08 98.81 C 241.92 98.34 241.61 97.39 241.46 96.91 C 233.61 91.45 225.90 85.71 217.40 81.26 L 217.53 80.26 C 217.08 80.43 216.19 80.77 215.75 80.94 L 215.57 79.80 C 214.96 79.58 213.74 79.13 213.13 78.91 C 212.62 78.65 211.61 78.14 211.11 77.88 C 210.59 77.57 209.57 76.96 209.05 76.66 C 208.70 76.67 208.01 76.70 207.66 76.72 L 207.52 75.84 C 203.98 74.79 200.65 73.17 197.19 71.90 C 181.55 66.59 162.83 64.74 148.60 74.72 M 316.83 71.91 C 313.35 73.16 310.02 74.80 306.47 75.84 L 306.31 76.75 C 305.97 76.73 305.29 76.67 304.95 76.65 C 303.62 77.45 302.27 78.21 300.92 78.95 C 300.29 79.16 299.05 79.58 298.43 79.79 L 298.24 80.95 C 297.80 80.77 296.91 80.42 296.47 80.24 L 296.60 81.25 C 293.89 82.67 291.28 84.29 288.65 85.84 C 283.14 89.32 277.92 93.22 272.55 96.91 C 272.39 97.38 272.08 98.33 271.92 98.80 C 287.98 113.83 303.06 129.95 316.31 147.52 C 317.05 148.34 317.58 149.63 318.85 149.66 C 323.57 156.90 329.02 163.62 333.73 170.86 C 334.57 172.78 335.64 174.59 336.79 176.35 C 337.48 177.32 338.16 178.30 338.85 179.29 C 339.88 180.90 340.87 182.53 341.84 184.18 C 346.06 190.70 350.06 197.37 353.81 204.18 C 355.97 207.76 357.96 211.45 359.85 215.18 C 362.89 220.47 365.53 225.98 368.23 231.45 L 369.03 230.47 C 365.84 238.69 362.46 246.84 358.99 254.94 C 358.80 254.38 358.43 253.26 358.24 252.70 C 356.35 249.18 354.79 245.50 353.01 241.93 C 352.81 241.33 352.40 240.15 352.20 239.56 C 351.96 239.45 351.49 239.24 351.25 239.13 L 351.46 237.86 C 351.10 237.37 350.39 236.40 350.03 235.92 C 349.81 235.40 349.37 234.36 349.14 233.85 C 348.87 233.36 348.31 232.38 348.03 231.89 C 347.82 231.39 347.38 230.37 347.17 229.87 C 344.68 225.61 342.53 221.17 340.17 216.85 C 338.74 214.55 337.43 212.17 336.17 209.78 C 334.12 206.45 332.13 203.09 330.16 199.72 C 329.11 198.12 328.11 196.48 327.13 194.84 C 326.47 193.79 325.80 192.74 325.15 191.69 C 324.48 190.69 323.82 189.69 323.18 188.69 C 320.54 184.68 317.85 180.70 315.15 176.73 C 314.49 175.76 313.82 174.80 313.16 173.83 C 311.13 171.59 310.06 168.11 307.09 166.97 C 303.19 159.57 297.32 153.42 292.09 146.95 L 291.57 146.91 C 288.45 141.13 283.32 136.81 279.11 131.87 C 272.61 124.27 265.07 117.66 258.01 110.64 C 257.50 110.63 256.47 110.60 255.96 110.59 C 255.31 111.37 254.67 112.15 254.01 112.92 C 247.64 118.18 241.97 124.26 236.30 130.26 C 231.74 135.87 225.84 140.52 222.44 146.99 C 219.73 148.69 218.11 151.63 216.05 154.02 C 212.92 158.27 209.08 162.08 206.91 166.97 C 203.94 168.11 202.87 171.60 200.82 173.84 C 197.46 178.77 194.11 183.71 190.81 188.69 C 190.17 189.69 189.52 190.69 188.86 191.69 C 188.20 192.74 187.54 193.79 186.87 194.85 C 185.89 196.48 184.89 198.11 183.84 199.70 C 181.87 203.09 179.88 206.46 177.82 209.79 C 176.56 212.19 175.25 214.55 173.83 216.86 C 171.37 221.20 169.39 225.82 166.58 229.96 L 166.78 231.12 C 166.53 231.23 166.04 231.44 165.79 231.55 C 165.59 232.14 165.18 233.32 164.98 233.91 C 164.19 235.26 163.42 236.63 162.60 237.98 L 162.77 239.13 C 162.53 239.24 162.05 239.45 161.81 239.56 C 160.08 245.01 156.53 249.77 155.14 255.32 C 155.83 257.97 157.13 260.43 158.18 262.95 C 157.03 260.86 155.66 258.89 154.39 256.87 C 151.45 264.38 147.78 271.67 145.67 279.46 C 141.83 285.97 140.55 293.66 137.90 300.70 C 135.33 309.82 132.77 318.95 131.05 328.28 C 147.11 333.52 163.58 337.84 180.33 340.09 C 184.97 347.48 190.26 354.47 195.63 361.35 C 173.80 358.36 152.09 354.07 131.04 347.49 C 129.92 347.11 128.81 346.73 127.71 346.37 C 125.65 365.27 124.76 384.63 128.84 403.33 C 129.80 406.63 130.77 409.92 131.84 413.18 C 133.34 416.64 135.00 420.01 136.78 423.32 C 138.84 426.50 141.28 429.39 143.83 432.18 C 147.36 435.48 151.37 438.24 155.80 440.22 C 163.14 442.98 171.11 443.96 178.90 442.99 C 197.22 440.93 214.04 432.34 229.29 422.40 C 233.72 419.21 238.61 416.53 242.35 412.50 C 245.08 410.60 247.68 408.14 250.99 407.36 C 254.04 409.54 256.49 412.45 259.62 414.54 C 259.30 414.85 258.66 415.46 258.35 415.77 C 260.18 416.57 261.97 417.48 263.69 418.51 C 266.80 416.89 269.61 414.77 272.03 412.24 L 271.91 412.96 C 276.14 416.88 281.12 419.87 285.85 423.15 C 301.85 433.40 319.66 442.25 338.95 443.28 C 350.29 443.96 362.02 440.27 370.17 432.18 C 375.53 426.82 379.30 420.16 382.15 413.19 C 382.76 411.20 383.40 409.22 384.10 407.27 C 389.47 387.45 388.49 366.59 386.25 346.40 C 364.20 353.67 341.33 358.17 318.37 361.36 C 323.74 354.48 329.04 347.49 333.67 340.09 C 350.42 337.83 366.89 333.53 382.95 328.28 C 379.64 311.63 374.87 295.25 368.77 279.42 L 368.13 280.41 C 372.50 272.89 375.14 264.54 379.34 256.94 C 380.37 258.59 381.23 260.36 381.90 262.20 C 382.93 264.83 383.94 267.48 384.89 270.15 C 386.39 273.75 387.58 277.47 388.86 281.15 C 393.53 294.47 397.24 308.09 400.43 321.83 C 402.67 320.93 404.89 320.01 407.12 319.09 C 407.63 318.85 408.63 318.38 409.13 318.14 C 413.21 316.29 417.19 314.24 421.18 312.22 C 423.50 310.82 425.86 309.49 428.22 308.17 C 429.25 307.49 430.29 306.82 431.34 306.18 C 433.32 304.84 435.31 303.50 437.32 302.21 C 440.33 299.95 443.25 297.56 446.21 295.23 C 453.10 289.34 458.94 282.19 463.27 274.22 C 463.50 273.72 463.97 272.72 464.21 272.21 C 468.95 261.67 468.86 249.33 464.15 238.80 C 463.89 238.32 463.38 237.35 463.13 236.87 C 460.15 231.12 456.13 226.02 451.70 221.33 C 437.42 206.79 419.12 197.08 400.52 189.24 C 401.40 186.48 401.67 183.58 401.68 180.70 C 397.26 178.81 392.63 176.95 387.71 177.49 C 387.59 177.19 387.35 176.57 387.23 176.26 C 386.25 175.92 385.28 175.57 384.31 175.23 C 384.97 171.64 385.53 168.02 385.83 164.38 L 386.15 164.48 C 388.36 145.43 389.26 125.82 384.73 107.02 C 382.31 97.12 378.12 87.43 371.14 79.87 C 369.21 78.17 367.33 76.42 365.40 74.73 C 351.18 64.75 332.45 66.57 316.83 71.91 Z" />
<path fill="#1a58dc" opacity="1.00" d=" M 206.71 344.33 C 233.75 346.56 260.98 347.88 288.07 345.66 C 294.51 345.50 300.88 344.52 307.31 344.33 C 302.22 351.07 297.23 357.89 291.78 364.35 C 274.66 364.53 257.53 365.93 240.40 364.85 C 234.34 364.76 228.28 364.10 222.22 364.34 C 216.77 357.89 211.76 351.09 206.71 344.33 Z" />
</g>
<g id="#0b87f3ff">
<path fill="#0b87f3" opacity="1.00" d=" M 222.44 146.99 C 245.43 145.15 268.57 145.34 291.57 146.91 L 292.09 146.95 C 297.32 153.42 303.19 159.57 307.09 166.97 C 273.82 163.44 240.18 163.44 206.91 166.97 C 209.08 162.08 212.92 158.27 216.05 154.02 C 218.11 151.63 219.73 148.69 222.44 146.99 Z" />
<path fill="#0b87f3" opacity="1.00" d=" M 129.95 163.81 C 151.19 157.12 173.08 152.68 195.12 149.66 C 190.40 156.92 185.03 163.73 180.13 170.86 C 163.50 173.51 147.07 177.52 131.09 182.81 C 134.35 199.37 139.58 215.44 145.05 231.38 C 141.77 240.31 136.31 248.45 134.25 257.82 L 134.31 257.21 C 134.76 255.08 133.83 253.07 133.06 251.14 C 124.75 231.12 118.48 210.31 113.53 189.23 C 112.67 186.18 112.00 183.09 111.45 179.98 C 112.10 179.08 112.76 178.20 113.41 177.30 C 113.08 176.89 112.41 176.06 112.08 175.65 C 114.03 175.59 116.01 175.63 117.91 176.11 C 118.35 175.59 118.80 175.07 119.24 174.55 C 122.39 174.30 125.55 174.07 128.65 173.46 C 128.91 170.32 127.00 166.09 129.95 163.81 Z" />
<path fill="#0b87f3" opacity="1.00" d=" M 318.85 149.66 C 341.52 152.76 364.03 157.37 385.83 164.38 C 385.53 168.02 384.97 171.64 384.31 175.23 C 385.28 175.57 386.25 175.92 387.23 176.26 C 387.35 176.57 387.59 177.19 387.71 177.49 C 392.63 176.95 397.26 178.81 401.68 180.70 C 401.67 183.58 401.40 186.48 400.52 189.24 C 395.58 209.80 389.58 230.14 381.52 249.72 C 380.52 252.03 379.74 254.44 379.34 256.94 C 375.14 264.54 372.50 272.89 368.13 280.41 C 360.11 296.07 351.85 311.63 342.35 326.45 C 339.49 331.02 336.40 335.44 333.67 340.09 C 329.04 347.49 323.74 354.48 318.37 361.36 C 306.26 376.48 293.78 391.38 279.74 404.77 C 277.16 407.25 274.53 409.68 272.03 412.24 C 269.61 414.77 266.80 416.89 263.69 418.51 C 261.97 417.48 260.18 416.57 258.35 415.77 C 258.66 415.46 259.30 414.85 259.62 414.54 C 256.49 412.45 254.04 409.54 250.99 407.36 C 247.68 408.14 245.08 410.60 242.35 412.50 C 229.39 400.46 217.11 387.68 205.90 373.98 C 202.35 369.88 199.24 365.41 195.63 361.35 C 190.26 354.47 184.97 347.48 180.33 340.09 C 167.69 320.53 155.51 300.60 145.67 279.46 C 147.78 271.67 151.45 264.38 154.39 256.87 C 155.66 258.89 157.03 260.86 158.18 262.95 C 170.80 289.89 185.71 315.78 203.07 339.95 C 204.20 341.48 205.46 342.90 206.71 344.33 C 211.76 351.09 216.77 357.89 222.22 364.34 C 232.72 377.45 244.35 389.73 257.00 400.80 C 269.65 389.73 281.26 377.45 291.78 364.35 C 297.23 357.89 302.22 351.07 307.31 344.33 C 310.39 340.96 312.96 337.20 315.51 333.44 C 331.25 310.68 344.93 286.51 356.50 261.37 C 357.45 259.28 358.31 257.14 358.99 254.94 C 362.46 246.84 365.84 238.69 369.03 230.47 C 374.86 214.97 379.58 199.01 382.88 182.78 C 366.84 177.56 350.40 173.46 333.73 170.86 C 329.02 163.62 323.57 156.90 318.85 149.66 Z" />
</g>
<g id="#58315cff">
<path fill="#58315c" opacity="1.00" d=" M 231.58 187.36 C 244.10 182.67 257.87 182.62 270.95 184.63 C 274.27 184.98 277.26 186.48 280.46 187.33 C 281.46 187.65 282.48 187.96 283.50 188.27 C 285.04 189.32 286.76 190.08 288.51 190.72 C 292.31 192.73 295.85 195.15 299.52 197.37 C 302.02 199.93 305.05 201.89 307.53 204.48 C 310.10 206.95 312.11 209.94 314.63 212.47 C 316.22 215.15 318.07 217.67 319.54 220.42 C 320.14 221.42 320.73 222.44 321.30 223.47 C 321.94 225.22 322.69 226.94 323.73 228.50 C 324.04 229.51 324.35 230.53 324.67 231.54 C 329.37 244.10 329.42 257.91 327.40 271.01 C 327.02 274.31 325.60 277.32 324.68 280.47 C 324.36 281.48 324.04 282.50 323.74 283.51 C 322.71 285.08 321.95 286.79 321.30 288.53 C 320.74 289.57 320.16 290.60 319.56 291.61 C 313.08 303.28 303.27 313.10 291.58 319.54 C 290.58 320.15 289.57 320.74 288.55 321.30 C 286.80 321.94 285.09 322.69 283.54 323.74 C 280.52 324.60 277.54 325.61 274.58 326.65 C 268.50 328.14 262.20 328.32 255.99 328.84 C 248.49 328.14 240.69 328.23 233.61 325.32 C 231.91 324.76 230.19 324.25 228.48 323.75 C 226.94 322.69 225.22 321.93 223.48 321.28 C 219.67 319.29 216.14 316.86 212.48 314.63 C 209.97 312.08 206.95 310.11 204.48 307.53 C 201.90 305.05 199.91 302.04 197.37 299.53 C 195.15 295.85 192.69 292.32 190.72 288.50 C 190.07 286.74 189.32 285.03 188.27 283.48 C 187.96 282.47 187.65 281.46 187.33 280.45 C 182.25 266.76 182.67 251.72 185.21 237.52 C 186.11 235.61 186.85 233.61 187.33 231.55 C 187.65 230.54 187.96 229.53 188.27 228.53 C 189.34 226.99 190.09 225.27 190.72 223.51 C 192.74 219.71 195.15 216.15 197.38 212.48 C 201.13 208.51 204.33 203.99 208.76 200.69 C 213.12 196.57 218.42 193.73 223.49 190.62 C 224.51 190.31 225.53 190.00 226.56 189.71 C 227.01 189.33 227.91 188.57 228.36 188.19 C 229.44 187.92 230.51 187.65 231.58 187.36 M 242.70 201.52 C 222.47 205.99 205.68 223.04 201.37 243.29 C 199.13 249.29 200.14 255.77 199.97 262.03 C 201.59 273.34 205.95 284.56 213.86 293.01 C 222.57 303.61 235.60 309.82 248.95 311.98 C 253.32 312.15 257.69 312.06 262.07 312.04 C 266.00 311.96 269.62 310.23 273.43 309.44 C 288.02 305.02 299.82 293.74 306.87 280.44 C 306.98 279.98 307.21 279.05 307.33 278.58 C 309.68 274.44 310.27 269.62 311.70 265.13 C 312.40 259.75 312.01 254.27 311.98 248.86 C 309.83 236.33 304.38 223.97 294.72 215.42 C 287.57 208.38 278.46 203.39 268.64 201.33 C 263.00 199.20 256.92 200.14 251.04 199.94 C 248.17 199.83 245.42 200.73 242.70 201.52 Z" />
<path fill="#58315c" opacity="1.00" d=" M 237.53 219.35 C 244.15 217.16 251.04 214.83 258.09 215.16 C 263.64 216.05 269.16 217.38 274.44 219.33 C 279.31 222.41 284.16 225.67 287.74 230.30 C 281.99 235.08 276.12 239.73 270.67 244.86 C 268.15 240.73 263.37 238.90 258.90 237.75 C 255.06 236.48 251.34 238.66 247.70 239.59 C 247.81 235.78 247.80 231.96 247.85 228.15 C 242.90 228.09 237.95 228.12 233.00 228.11 C 233.00 243.63 232.99 259.16 233.01 274.68 C 237.80 274.56 242.61 274.90 247.39 274.55 C 247.66 274.10 248.20 273.21 248.48 272.76 C 250.96 273.50 253.37 274.66 256.01 274.82 C 263.06 274.34 269.83 270.31 273.05 263.90 C 266.51 263.91 259.97 263.93 253.43 263.90 C 253.42 258.78 253.41 253.67 253.43 248.55 C 267.95 248.55 282.46 248.53 296.98 248.56 C 297.74 256.46 295.79 264.10 293.85 271.67 C 293.47 272.11 292.70 272.99 292.32 273.43 C 287.98 285.74 275.52 293.72 263.05 295.91 C 255.49 298.44 247.79 295.59 240.44 293.77 C 237.60 291.74 234.10 290.87 231.41 288.60 C 226.26 284.94 222.60 279.72 219.33 274.41 C 218.97 273.45 218.60 272.49 218.22 271.54 C 216.77 265.12 214.10 258.64 215.41 251.95 C 216.25 248.09 217.22 244.27 218.23 240.46 C 218.60 239.51 218.96 238.55 219.32 237.60 C 221.75 233.99 223.90 230.12 227.13 227.14 C 230.09 223.91 233.97 221.82 237.53 219.35 Z" />
</g>
</svg>
