<?xml version="1.0" encoding="UTF-8" ?>
<!DOCTYPE svg PUBLIC "-//W3C//DTD SVG 1.1//EN" "http://www.w3.org/Graphics/SVG/1.1/DTD/svg11.dtd">
<svg width="780pt" height="780pt" viewBox="0 0 780 780" version="1.1" xmlns="http://www.w3.org/2000/svg">
<g id="#0057c1ff">
<path fill="#0057c1" opacity="1.00" d=" M 186.85 64.83 C 206.22 50.12 230.77 43.03 254.97 43.53 C 287.01 44.00 317.91 55.18 345.86 70.21 C 361.30 78.41 375.86 88.14 390.01 98.37 C 422.13 74.96 457.68 54.63 496.99 46.57 C 519.93 41.91 544.33 42.15 566.46 50.32 C 582.93 56.29 597.75 66.61 609.24 79.81 C 621.45 93.70 630.03 110.49 635.72 128.02 C 647.66 165.42 647.73 205.46 643.49 244.13 C 675.53 258.15 706.56 275.73 731.95 300.06 C 746.11 313.73 758.34 329.71 766.13 347.89 C 773.18 364.22 776.28 382.31 774.48 400.04 C 772.60 419.68 764.81 438.43 753.64 454.57 C 736.10 479.92 711.31 499.33 684.98 514.88 C 671.65 522.83 657.66 529.59 643.48 535.87 C 646.68 564.47 647.33 593.56 642.81 622.06 C 638.16 651.18 627.59 680.36 607.31 702.33 C 593.67 717.22 575.62 728.01 556.02 732.89 C 534.44 738.43 511.59 737.12 490.09 731.89 C 453.47 722.87 420.25 703.69 390.01 681.61 C 360.88 702.85 329.07 721.43 294.02 730.84 C 272.56 736.58 249.71 738.57 227.85 733.81 C 207.50 729.50 188.51 718.96 174.16 703.89 C 153.58 682.53 142.63 653.71 137.64 624.89 C 132.59 595.50 133.22 565.41 136.49 535.86 C 117.93 527.63 99.75 518.45 82.79 507.27 C 58.79 491.61 36.66 472.04 21.69 447.35 C 8.57 425.89 2.24 399.97 6.13 374.95 C 10.02 348.03 24.76 323.81 43.53 304.58 C 69.58 277.83 102.59 259.10 136.49 244.13 C 132.38 206.49 132.30 167.62 143.31 131.07 C 150.99 105.46 165.17 81.03 186.85 64.83 M 236.96 82.53 C 221.95 85.43 208.08 93.63 198.27 105.35 C 184.63 121.51 177.92 142.27 174.42 162.82 C 170.75 185.10 170.91 207.83 172.81 230.27 C 208.66 218.56 245.57 210.25 282.90 204.93 C 306.14 175.46 331.61 147.65 359.86 122.89 C 338.14 107.71 314.71 94.45 289.26 86.70 C 272.41 81.65 254.38 79.09 236.96 82.53 M 494.45 85.62 C 467.57 93.14 442.94 107.02 420.15 122.87 C 448.39 147.66 473.86 175.48 497.14 204.95 C 534.45 210.19 571.35 218.50 607.14 230.27 C 608.96 209.60 609.15 188.69 606.36 168.10 C 603.82 150.10 599.01 132.11 589.61 116.41 C 581.57 102.74 569.25 91.34 554.27 85.77 C 535.13 78.49 513.84 80.31 494.45 85.62 M 336.37 199.35 C 325.10 212.55 313.69 225.77 303.81 240.06 L 303.22 240.11 C 268.48 286.39 239.27 336.85 216.33 389.98 C 216.49 390.35 216.80 391.10 216.96 391.48 C 215.98 392.01 215.26 392.77 214.80 393.77 C 208.64 408.58 202.68 423.48 197.60 438.69 C 189.32 462.48 183.03 486.93 178.06 511.61 C 201.88 520.19 226.47 526.67 251.32 531.49 C 252.77 533.51 254.31 535.47 255.93 537.37 C 263.49 532.70 270.26 526.78 276.39 520.36 C 278.90 517.85 280.44 514.36 283.73 512.70 C 290.11 521.82 296.40 531.01 303.21 539.82 C 342.61 544.41 382.37 545.85 422.01 544.18 C 440.28 543.61 458.47 541.68 476.66 540.04 C 467.18 553.55 456.45 566.17 445.73 578.71 C 444.99 579.93 443.19 581.89 444.89 583.12 C 450.15 587.22 455.78 590.86 461.41 594.45 C 466.03 596.77 470.15 600.15 475.22 601.48 C 458.13 621.21 439.76 639.87 420.16 657.12 C 440.40 671.24 462.08 683.65 485.52 691.63 C 503.30 697.57 522.45 700.99 541.12 697.80 C 555.64 695.39 569.32 688.16 579.31 677.32 C 591.90 663.83 599.10 646.22 603.29 628.47 C 609.25 602.69 609.41 575.92 607.14 549.67 C 571.42 561.43 534.60 569.95 497.31 574.82 C 507.85 560.42 518.85 546.35 528.72 531.46 C 553.52 526.90 577.85 519.97 601.74 511.96 C 597.33 487.09 590.49 462.69 582.46 438.76 C 590.45 422.95 597.13 406.53 604.41 390.40 C 618.57 425.00 629.83 460.87 637.23 497.53 C 658.48 487.73 678.96 475.93 697.01 460.94 C 709.69 450.24 721.25 437.81 728.97 423.00 C 735.07 411.40 738.35 398.16 737.29 385.04 C 736.24 370.84 730.34 357.40 722.19 345.87 C 712.31 331.89 699.50 320.22 685.65 310.27 C 670.59 299.27 654.14 290.32 637.28 282.43 C 633.20 302.68 627.91 322.69 621.58 342.35 C 610.49 336.40 598.34 332.87 586.23 329.71 C 592.57 309.50 597.90 288.98 601.82 268.16 C 578.05 259.80 553.61 253.44 528.93 248.37 C 536.92 260.99 545.24 273.41 552.74 286.34 C 563.51 304.20 573.19 322.68 582.67 341.25 C 577.10 357.69 570.85 373.93 563.67 389.73 C 540.52 336.77 511.52 286.31 476.78 240.09 L 476.20 240.03 C 466.24 225.82 454.86 212.65 443.69 199.37 C 427.00 180.52 409.16 162.66 390.01 146.30 C 370.87 162.65 353.00 180.46 336.37 199.35 M 178.21 268.11 C 182.65 292.92 189.56 317.23 197.43 341.16 C 206.45 323.20 215.87 305.44 226.16 288.19 C 233.98 274.61 242.70 261.58 251.07 248.35 C 226.41 253.48 202.02 259.89 178.21 268.11 M 72.57 328.55 C 61.08 339.96 51.08 353.39 45.96 368.91 C 41.65 381.75 41.37 395.90 45.27 408.88 C 50.83 427.59 63.45 443.30 77.66 456.28 C 96.84 473.56 119.39 486.69 142.74 497.47 C 150.10 460.67 161.69 424.83 175.56 389.99 C 161.68 355.18 150.08 319.35 142.80 282.56 C 117.29 294.21 92.69 308.82 72.57 328.55 M 178.38 635.02 C 183.28 652.46 191.55 669.59 205.27 681.80 C 216.67 692.08 231.73 697.83 246.97 698.80 C 267.94 700.22 288.67 694.53 307.88 686.57 C 326.23 678.71 343.56 668.59 359.85 657.09 C 331.60 632.32 306.13 604.50 282.86 575.03 C 245.56 569.67 208.62 561.52 172.84 549.65 C 170.41 578.12 170.70 607.31 178.38 635.02 M 336.12 580.49 C 352.96 599.30 370.76 617.30 390.00 633.68 C 409.24 617.31 427.01 599.29 443.85 580.49 C 408.00 582.99 371.97 583.00 336.12 580.49 Z" />
<path fill="#0057c1" opacity="1.00" d=" M 370.94 269.11 C 380.85 267.22 391.01 268.22 401.04 268.08 C 426.22 270.35 450.79 280.45 469.74 297.28 C 478.40 303.92 485.00 312.74 491.46 321.44 C 499.88 333.89 506.03 347.89 509.29 362.58 C 512.91 375.42 511.95 388.85 511.91 402.04 C 509.56 424.47 501.25 446.48 487.22 464.25 C 469.88 487.65 443.50 504.00 415.03 509.90 C 403.91 512.83 392.36 511.86 380.98 511.97 C 373.35 512.16 366.00 509.87 358.55 508.58 C 354.56 507.20 350.54 505.91 346.52 504.60 C 329.70 498.15 314.52 487.81 301.83 475.08 C 291.51 463.66 282.36 450.88 276.78 436.44 C 272.07 425.55 269.53 413.79 268.12 402.05 C 268.10 390.36 267.16 378.50 269.80 367.01 C 273.44 346.71 282.88 327.75 295.86 311.82 C 299.97 307.61 303.24 302.55 308.19 299.20 C 325.40 283.09 347.68 272.68 370.94 269.11 M 377.49 297.11 C 375.72 298.34 373.49 297.86 371.49 298.13 C 370.31 298.97 368.84 298.96 367.48 299.23 C 365.85 299.92 364.00 299.93 362.43 300.77 C 361.94 300.87 360.96 301.09 360.47 301.19 C 359.48 301.63 358.47 301.99 357.43 302.25 C 355.85 303.12 354.19 303.86 352.42 304.22 C 350.43 305.27 348.42 306.30 346.36 307.21 C 338.07 311.66 330.69 317.49 323.70 323.73 C 315.67 332.14 309.04 341.82 304.21 352.40 C 303.73 354.14 303.08 355.84 302.22 357.43 C 301.64 359.47 301.02 361.50 300.23 363.47 C 299.97 364.81 299.78 366.19 299.23 367.47 C 298.98 368.82 298.88 370.25 298.14 371.47 C 297.86 373.48 298.28 375.71 297.11 377.50 C 296.74 385.83 296.74 394.18 297.12 402.51 C 298.26 404.31 297.88 406.50 298.14 408.52 C 298.88 409.73 298.99 411.14 299.23 412.51 C 299.71 414.19 300.11 415.89 300.64 417.56 C 301.17 419.22 301.71 420.89 302.23 422.56 C 307.27 436.02 315.37 448.31 325.75 458.27 C 331.43 462.93 337.18 467.57 343.53 471.32 C 344.48 471.79 345.43 472.27 346.38 472.77 C 348.41 473.73 350.42 474.73 352.41 475.78 C 354.17 476.19 355.86 476.85 357.43 477.77 C 358.44 478.06 359.45 478.36 360.47 478.68 C 361.47 479.02 362.47 479.38 363.47 479.77 C 364.81 480.00 366.19 480.18 367.45 480.76 C 368.82 481.01 370.26 481.11 371.49 481.86 C 373.49 482.13 375.70 481.71 377.49 482.89 C 385.82 483.27 394.18 483.28 402.51 482.89 C 404.30 481.72 406.49 482.12 408.50 481.86 C 409.73 481.14 411.15 481.01 412.52 480.76 C 413.80 480.22 415.18 480.01 416.54 479.76 C 417.53 479.38 418.52 479.02 419.53 478.69 C 420.54 478.37 421.55 478.06 422.57 477.77 C 424.13 476.86 425.82 476.20 427.58 475.78 C 430.53 474.26 433.50 472.81 436.47 471.34 C 438.91 469.89 441.21 468.23 443.59 466.68 C 458.53 456.76 469.69 441.96 476.76 425.58 C 477.06 424.57 477.38 423.57 477.72 422.58 C 479.54 418.02 480.40 413.18 481.84 408.52 C 482.10 406.50 481.82 404.33 482.88 402.50 C 483.29 394.17 483.29 385.81 482.88 377.48 C 481.76 375.67 482.12 373.46 481.85 371.44 C 480.68 368.54 480.42 365.38 479.38 362.44 C 478.84 360.77 478.31 359.10 477.78 357.44 C 472.78 344.21 464.96 332.05 454.76 322.22 C 448.21 316.56 441.26 311.34 433.63 307.21 C 433.12 306.97 432.11 306.50 431.61 306.26 C 430.25 305.60 428.91 304.93 427.59 304.23 C 425.82 303.81 424.14 303.14 422.57 302.25 C 421.52 301.98 420.51 301.63 419.53 301.20 C 419.05 301.09 418.07 300.87 417.58 300.76 C 415.98 299.96 414.16 299.89 412.52 299.24 C 411.15 298.97 409.70 298.94 408.51 298.14 C 406.50 297.87 404.28 298.32 402.51 297.11 C 394.17 296.75 385.82 296.76 377.49 297.11 Z" />
</g>
<g id="#0f7ae6ff">
<path fill="#0f7ae6" opacity="1.00" d=" M 336.37 199.35 C 372.10 197.11 407.96 197.07 443.69 199.37 C 454.86 212.65 466.24 225.82 476.20 240.03 C 418.98 233.48 361.02 233.54 303.81 240.06 C 313.69 225.77 325.10 212.55 336.37 199.35 Z" />
<path fill="#0f7ae6" opacity="1.00" d=" M 378.54 322.86 C 378.92 322.67 379.67 322.27 380.04 322.07 C 386.69 321.94 393.36 321.93 400.02 322.08 C 400.38 322.27 401.11 322.67 401.47 322.86 C 403.13 323.10 405.04 322.62 406.45 323.81 C 407.80 324.00 409.21 324.03 410.46 324.69 C 411.46 324.99 412.46 325.32 413.44 325.69 C 415.17 326.15 416.84 326.82 418.37 327.75 C 421.24 329.00 423.91 330.63 426.56 332.29 C 433.04 336.18 438.66 341.52 443.26 347.49 C 440.68 350.24 437.14 351.79 434.77 354.76 C 431.21 356.79 428.80 360.21 425.24 362.25 C 422.38 365.65 418.09 367.40 415.57 371.17 C 413.36 371.25 412.72 368.94 411.26 367.81 C 408.65 366.07 406.42 363.75 403.41 362.68 C 402.48 362.24 401.53 361.92 400.53 361.72 C 398.99 360.77 396.96 361.26 395.53 360.09 C 391.84 359.94 388.14 359.94 384.46 360.09 C 383.55 360.72 382.55 361.11 381.45 361.27 C 380.51 361.80 379.49 362.11 378.39 362.18 C 377.23 362.82 376.09 363.48 374.97 364.18 C 375.03 357.79 374.98 351.39 375.00 345.00 C 367.33 345.00 359.67 345.00 352.00 345.00 C 352.00 370.00 352.00 395.00 352.00 420.00 C 359.67 420.00 367.33 420.00 375.00 420.00 C 375.00 419.20 375.00 417.61 375.01 416.81 C 376.96 417.03 378.81 417.76 380.43 418.89 C 381.44 418.98 382.47 419.08 383.50 419.18 C 387.46 421.02 392.24 419.62 396.53 419.91 C 397.61 418.80 399.20 419.08 400.58 418.83 C 402.14 417.89 403.79 417.14 405.40 416.32 C 411.05 413.47 415.37 408.59 418.19 402.99 C 407.13 403.01 396.06 402.99 385.00 403.00 C 385.00 394.33 385.00 385.67 385.00 377.00 C 409.67 377.00 434.33 377.00 459.00 377.00 C 458.86 381.85 459.28 386.75 458.83 391.58 L 458.06 392.46 C 457.72 395.43 458.68 398.73 457.17 401.46 C 456.97 403.13 457.09 404.91 456.26 406.45 C 455.96 407.77 455.70 409.11 455.32 410.42 C 454.77 412.13 454.12 413.82 453.26 415.40 C 450.93 422.30 446.69 428.42 442.17 434.07 C 437.23 439.47 432.03 444.96 425.41 448.27 C 423.31 449.99 420.80 451.10 418.35 452.22 C 417.38 452.74 416.42 453.29 415.47 453.85 C 414.97 453.92 413.95 454.08 413.45 454.16 C 412.50 454.68 411.50 455.06 410.46 455.31 C 409.22 455.98 407.80 455.99 406.45 456.20 C 405.04 457.36 403.12 456.90 401.46 457.13 C 401.08 457.33 400.30 457.73 399.92 457.93 C 393.30 458.06 386.66 458.06 380.05 457.93 C 379.67 457.73 378.92 457.33 378.54 457.13 C 376.86 456.89 374.95 457.37 373.54 456.20 C 372.19 455.99 370.77 455.98 369.55 455.30 C 368.49 455.06 367.49 454.68 366.55 454.16 C 366.05 454.08 365.04 453.93 364.54 453.85 C 363.57 453.29 362.60 452.75 361.63 452.22 C 361.13 451.98 360.13 451.51 359.62 451.27 C 357.84 450.45 356.10 449.53 354.60 448.26 C 351.47 447.01 349.07 444.59 346.35 442.69 C 337.99 435.16 330.56 426.10 326.74 415.40 C 325.88 413.82 325.22 412.14 324.68 410.43 C 324.30 409.12 324.02 407.78 323.74 406.45 C 322.90 404.91 323.03 403.13 322.83 401.46 C 321.17 397.91 322.34 393.79 322.00 390.01 C 322.33 386.21 321.18 382.08 322.82 378.52 C 323.04 376.84 322.91 375.07 323.74 373.54 C 324.02 372.20 324.30 370.87 324.68 369.56 C 325.22 367.84 325.89 366.17 326.74 364.59 C 331.78 351.35 341.51 339.84 353.45 332.29 C 356.10 330.64 358.74 328.97 361.64 327.79 C 362.59 327.25 363.55 326.71 364.50 326.17 C 365.01 326.08 366.03 325.91 366.54 325.83 C 367.49 325.32 368.49 324.94 369.54 324.69 C 370.78 324.02 372.18 323.99 373.54 323.80 C 374.96 322.63 376.86 323.09 378.54 322.86 Z" />
<path fill="#0f7ae6" opacity="1.00" d=" M 582.67 341.25 C 583.73 337.36 585.00 333.54 586.23 329.71 C 598.34 332.87 610.49 336.40 621.58 342.35 C 616.53 358.60 610.31 374.45 604.41 390.40 C 597.13 406.53 590.45 422.95 582.46 438.76 C 566.76 470.87 548.82 501.91 528.72 531.46 C 518.85 546.35 507.85 560.42 497.31 574.82 C 490.10 583.83 482.78 592.75 475.22 601.48 C 470.15 600.15 466.03 596.77 461.41 594.45 C 455.78 590.86 450.15 587.22 444.89 583.12 C 443.19 581.89 444.99 579.93 445.73 578.71 C 456.45 566.17 467.18 553.55 476.66 540.04 C 487.17 526.27 496.92 511.95 506.36 497.43 C 528.25 463.12 547.84 427.25 563.67 389.73 C 570.85 373.93 577.10 357.69 582.67 341.25 Z" />
<path fill="#0f7ae6" opacity="1.00" d=" M 214.80 393.77 C 215.26 392.77 215.98 392.01 216.96 391.48 C 235.30 433.88 257.86 474.44 283.73 512.70 C 280.44 514.36 278.90 517.85 276.39 520.36 C 270.26 526.78 263.49 532.70 255.93 537.37 C 254.31 535.47 252.77 533.51 251.32 531.49 C 231.22 501.91 213.14 470.91 197.60 438.69 C 202.68 423.48 208.64 408.58 214.80 393.77 Z" />
</g>
</svg>
