<?xml version="1.0" encoding="UTF-8" ?>
<!DOCTYPE svg PUBLIC "-//W3C//DTD SVG 1.1//EN" "http://www.w3.org/Graphics/SVG/1.1/DTD/svg11.dtd">
<svg width="780pt" height="780pt" viewBox="0 0 780 780" version="1.1" xmlns="http://www.w3.org/2000/svg">
<g id="#0682c5ff">
<path fill="#0682c5" opacity="1.00" d=" M 186.27 65.27 C 206.26 49.84 231.88 42.67 256.97 43.56 C 291.08 44.56 323.61 57.47 352.97 74.11 C 365.80 81.44 378.06 89.71 390.01 98.38 C 410.94 83.02 433.23 69.33 457.14 59.12 C 479.52 49.67 503.57 43.26 528.00 43.53 C 550.28 43.63 572.71 50.12 590.89 63.17 C 613.58 79.18 628.49 104.15 636.46 130.39 C 647.68 167.15 647.61 206.29 643.51 244.18 C 674.51 257.65 704.44 274.58 729.37 297.62 C 743.89 311.13 756.54 326.95 764.87 345.04 C 772.63 361.80 776.27 380.56 774.57 399.00 C 772.91 418.56 765.35 437.30 754.39 453.47 C 737.37 478.55 713.21 497.92 687.43 513.41 C 673.37 521.98 658.55 529.22 643.48 535.85 C 646.36 561.42 647.12 587.33 644.10 612.93 C 641.79 631.71 637.41 650.36 629.70 667.69 C 623.25 682.24 614.35 695.84 602.84 706.89 C 589.65 719.67 573.01 728.79 555.17 733.11 C 533.17 738.55 509.95 736.97 488.14 731.40 C 452.27 722.17 419.71 703.30 390.01 681.61 C 361.93 702.11 331.39 720.06 297.81 729.79 C 275.58 736.21 251.79 738.77 228.97 734.04 C 208.66 729.96 189.63 719.72 175.14 704.90 C 154.72 684.24 143.50 656.22 138.21 628.05 C 132.54 597.67 133.09 566.47 136.50 535.86 C 117.94 527.64 99.75 518.45 82.78 507.27 C 58.18 491.19 35.48 471.02 20.55 445.42 C 8.18 424.38 2.38 399.24 6.12 374.98 C 10.01 348.04 24.76 323.80 43.55 304.57 C 69.59 277.82 102.60 259.10 136.50 244.12 C 132.39 206.78 132.32 168.23 143.06 131.92 C 150.62 106.22 164.67 81.65 186.27 65.27 M 238.92 82.17 C 223.42 84.71 208.96 92.83 198.76 104.78 C 185.18 120.54 178.35 140.89 174.72 161.09 C 170.74 183.96 170.84 207.36 172.85 230.43 C 208.58 218.36 245.59 210.35 282.88 204.94 C 306.15 175.48 331.60 147.64 359.86 122.89 C 338.58 108.01 315.66 94.99 290.79 87.16 C 274.11 82.00 256.28 79.20 238.92 82.17 M 495.03 85.46 C 467.93 92.93 443.11 106.92 420.14 122.86 C 448.39 147.65 473.86 175.49 497.15 204.95 C 534.45 210.24 571.41 218.39 607.15 230.36 C 608.96 209.46 609.17 188.32 606.27 167.51 C 603.71 149.70 598.89 131.89 589.58 116.35 C 581.52 102.70 569.20 91.31 554.23 85.76 C 535.29 78.56 514.24 80.28 495.03 85.46 M 336.21 199.46 C 325.04 212.71 313.60 225.80 303.76 240.08 L 303.19 240.13 C 268.46 286.42 239.29 336.88 216.31 389.98 L 216.58 390.61 C 208.89 406.03 203.41 422.46 197.52 438.63 C 189.53 462.50 182.83 486.83 178.19 511.58 C 201.90 520.41 226.59 526.43 251.33 531.65 L 250.82 530.90 C 259.21 542.88 267.74 554.76 276.65 566.36 C 278.80 568.95 281.12 571.53 282.08 574.85 C 283.21 573.74 284.37 572.65 285.60 571.64 C 293.09 565.85 299.18 558.54 306.10 552.10 C 307.00 550.94 308.84 549.96 308.49 548.25 C 306.95 545.30 304.86 542.68 303.09 539.88 C 360.73 546.47 419.11 546.47 476.76 539.95 C 466.55 554.07 455.61 567.69 443.88 580.58 C 408.00 582.87 371.97 583.05 336.10 580.49 C 352.97 599.28 370.75 617.31 390.00 633.68 C 404.90 620.99 418.92 607.30 432.37 593.08 C 437.41 598.42 443.92 601.95 449.89 606.11 C 454.31 609.20 459.33 611.26 463.87 614.17 C 450.11 629.28 435.49 643.62 420.16 657.13 C 441.10 671.69 463.55 684.52 487.90 692.41 C 505.54 698.03 524.54 701.06 542.91 697.47 C 557.23 694.73 570.56 687.21 580.25 676.31 C 592.39 662.78 599.35 645.42 603.42 627.90 C 609.26 602.28 609.38 575.70 607.15 549.62 C 571.40 561.57 534.45 569.80 497.14 574.96 C 507.89 560.61 518.87 546.41 528.79 531.45 C 553.59 526.78 578.04 520.12 601.86 511.77 C 597.17 486.99 590.44 462.65 582.54 438.71 C 590.55 422.86 597.40 406.47 604.37 390.15 C 618.48 424.88 629.81 460.81 637.27 497.56 C 658.87 487.48 679.77 475.51 698.03 460.07 C 710.49 449.41 721.81 437.02 729.32 422.33 C 735.35 410.62 738.48 397.26 737.21 384.08 C 735.94 369.70 729.71 356.18 721.29 344.60 C 711.53 331.20 699.10 319.93 685.68 310.29 C 670.60 299.29 654.15 290.32 637.27 282.44 C 635.34 292.18 633.10 301.87 630.53 311.47 C 618.81 307.03 606.97 302.84 594.68 300.26 C 597.38 289.63 599.78 278.93 601.82 268.15 C 577.96 259.81 553.48 253.34 528.71 248.37 C 548.76 278.08 566.72 309.19 582.59 341.32 C 577.14 357.82 570.63 373.97 563.70 389.90 C 540.63 336.85 511.54 286.38 476.80 240.11 L 476.22 240.05 C 466.31 225.83 454.97 212.67 443.78 199.46 C 427.04 180.59 409.20 162.68 390.01 146.30 C 370.80 162.67 352.96 180.59 336.21 199.46 M 178.16 268.17 C 182.73 293.02 189.61 317.38 197.47 341.36 C 213.17 309.14 231.30 278.11 251.28 248.35 C 226.52 253.42 202.03 259.85 178.16 268.17 M 72.06 329.06 C 60.59 340.56 50.65 354.11 45.69 369.73 C 41.49 382.76 41.47 397.09 45.65 410.13 C 51.72 429.24 65.01 445.12 79.83 458.22 C 98.55 474.54 120.26 487.07 142.72 497.49 C 150.11 460.70 161.66 424.85 175.56 390.02 C 161.66 355.18 150.13 319.31 142.73 282.51 C 117.09 294.42 92.23 309.03 72.06 329.06 M 178.34 634.89 C 183.29 652.57 191.70 669.95 205.73 682.20 C 217.05 692.24 231.91 697.83 246.94 698.79 C 267.92 700.22 288.67 694.54 307.89 686.56 C 326.24 678.71 343.55 668.56 359.86 657.10 C 331.60 632.30 306.07 604.47 282.82 574.95 C 282.63 574.93 282.26 574.88 282.08 574.85 C 245.04 569.58 208.32 561.50 172.84 549.56 C 170.42 578.01 170.68 607.18 178.34 634.89 Z" />
<path fill="#0682c5" opacity="1.00" d=" M 343.54 276.73 C 354.17 272.25 365.51 269.68 376.92 268.23 C 385.28 267.84 393.66 267.94 402.03 268.14 C 413.81 269.45 425.51 272.14 436.46 276.73 C 469.45 290.08 495.87 318.63 506.59 352.58 C 509.32 361.49 511.47 370.65 511.97 379.98 C 512.01 386.99 512.06 394.00 511.93 401.01 C 509.24 433.85 492.22 465.06 466.55 485.62 C 453.33 496.34 437.74 503.84 421.43 508.55 C 414.02 509.95 406.67 512.09 399.06 511.98 C 391.36 511.93 383.65 512.21 375.96 511.76 C 365.90 510.56 356.04 508.03 346.53 504.57 C 329.92 498.27 314.98 488.07 302.37 475.63 C 291.76 464.12 282.55 451.08 276.73 436.47 C 276.02 434.78 275.36 433.08 274.79 431.35 L 274.40 430.56 C 271.44 421.63 269.37 412.41 268.23 403.08 C 267.81 396.73 268.07 390.35 268.00 383.99 C 267.81 374.34 270.15 364.89 272.45 355.58 C 272.78 354.57 273.12 353.57 273.44 352.56 C 278.79 335.90 287.91 320.49 299.68 307.57 C 303.03 302.94 307.79 299.72 311.89 295.84 C 321.40 287.93 332.02 281.30 343.54 276.73 M 377.63 297.16 C 375.71 297.93 373.62 297.99 371.59 298.24 C 370.24 298.65 368.87 298.97 367.50 299.29 C 365.80 299.79 364.06 300.16 362.36 300.69 C 361.90 300.82 360.97 301.09 360.50 301.22 C 359.49 301.60 358.48 301.96 357.47 302.30 C 355.82 303.04 354.15 303.73 352.43 304.28 C 350.41 305.26 348.39 306.26 346.36 307.22 C 338.07 311.65 330.67 317.47 323.71 323.73 C 315.68 332.13 309.00 341.80 304.25 352.42 C 303.66 354.13 302.99 355.81 302.26 357.46 C 301.72 359.12 301.15 360.76 300.62 362.42 C 300.13 364.10 299.76 365.81 299.28 367.50 C 298.96 368.86 298.64 370.22 298.23 371.57 C 297.99 373.60 297.88 375.68 297.17 377.63 C 296.70 385.86 296.71 394.14 297.17 402.37 C 297.89 404.31 297.99 406.40 298.23 408.44 C 299.09 411.47 299.75 414.55 300.60 417.59 C 301.14 419.24 301.71 420.89 302.25 422.55 C 305.92 432.26 311.00 441.43 317.67 449.42 C 324.58 458.48 333.98 465.22 343.49 471.32 C 344.45 471.79 345.42 472.27 346.38 472.75 C 348.39 473.75 350.40 474.75 352.42 475.73 C 354.14 476.28 355.81 476.96 357.47 477.71 C 358.48 478.04 359.48 478.40 360.49 478.78 C 360.96 478.92 361.91 479.19 362.38 479.33 C 364.06 479.84 365.79 480.22 367.49 480.72 C 368.85 481.04 370.22 481.35 371.57 481.77 C 373.60 482.00 375.69 482.10 377.63 482.84 C 385.86 483.30 394.14 483.32 402.38 482.83 C 404.32 482.11 406.39 482.00 408.43 481.77 C 409.77 481.36 411.14 481.04 412.51 480.73 C 414.20 480.23 415.92 479.84 417.61 479.34 C 418.09 479.20 419.04 478.92 419.52 478.79 C 420.51 478.40 421.52 478.05 422.53 477.71 C 424.18 476.97 425.85 476.29 427.58 475.74 C 430.56 474.28 433.52 472.79 436.50 471.34 C 443.80 466.90 450.65 461.76 456.78 455.80 C 465.46 447.20 471.75 436.56 476.84 425.53 C 476.96 425.05 477.19 424.10 477.30 423.63 C 480.08 416.82 481.46 409.57 482.83 402.39 C 483.33 394.15 483.33 385.86 482.83 377.62 C 482.12 375.66 482.01 373.58 481.78 371.54 C 480.91 368.52 480.24 365.44 479.41 362.42 C 478.87 360.76 478.30 359.11 477.76 357.46 C 474.05 347.75 469.02 338.49 462.31 330.51 C 454.64 320.72 444.37 313.32 433.64 307.21 C 431.60 306.25 429.59 305.26 427.57 304.28 C 425.85 303.72 424.18 303.03 422.53 302.30 C 421.51 301.95 420.50 301.60 419.50 301.22 C 419.03 301.09 418.10 300.82 417.63 300.69 C 415.93 300.16 414.20 299.79 412.50 299.29 C 411.12 298.96 409.76 298.65 408.42 298.24 C 406.38 297.99 404.29 297.92 402.37 297.16 C 394.13 296.72 385.87 296.72 377.63 297.16 Z" />
<path fill="#0682c5" opacity="1.00" d=" M 378.40 322.69 C 382.48 321.39 386.84 322.21 391.04 322.00 C 394.56 322.16 398.25 321.43 401.61 322.77 C 402.83 322.93 404.06 323.07 405.30 323.24 C 407.00 323.79 408.75 324.18 410.47 324.68 C 411.48 325.03 412.49 325.40 413.50 325.80 C 413.98 325.90 414.94 326.11 415.43 326.22 C 418.78 328.02 422.32 329.51 425.47 331.68 C 432.51 335.51 438.18 341.34 443.36 347.35 C 441.78 348.79 440.24 350.31 438.36 351.34 C 436.76 352.75 435.24 354.24 433.64 355.65 C 430.86 357.09 429.13 359.91 426.35 361.35 C 424.40 363.07 422.68 365.11 420.34 366.33 C 418.53 367.91 416.85 369.63 415.23 371.39 C 411.39 368.37 408.02 364.62 403.46 362.61 C 402.49 362.28 401.53 361.96 400.56 361.67 C 398.84 361.14 397.09 360.73 395.40 360.13 C 391.78 359.90 388.16 359.93 384.54 360.08 C 383.20 360.69 381.82 361.22 380.47 361.84 C 379.97 361.90 378.95 362.02 378.44 362.09 C 377.29 362.78 376.13 363.48 374.98 364.19 C 375.02 357.79 375.00 351.39 375.00 345.00 C 367.33 345.00 359.66 345.00 352.00 345.00 C 352.00 370.00 352.00 395.00 352.00 420.00 C 359.66 420.00 367.32 420.00 374.98 420.00 C 375.00 419.17 375.05 417.49 375.07 416.66 C 376.95 417.22 378.78 417.94 380.54 418.82 C 381.48 418.98 382.41 419.16 383.36 419.34 C 387.56 420.68 392.07 419.90 396.40 419.87 C 398.04 419.25 399.76 418.87 401.43 418.36 C 402.77 417.67 404.12 416.99 405.46 416.30 C 406.87 415.47 408.23 414.56 409.66 413.75 C 413.25 410.80 416.05 407.06 418.25 402.99 C 407.17 403.00 396.08 402.99 385.00 403.00 C 385.00 394.33 385.00 385.67 385.00 377.00 C 409.67 377.00 434.33 377.00 459.00 377.00 C 458.96 381.77 459.12 386.55 458.87 391.32 C 457.18 394.47 458.58 398.25 457.31 401.56 C 456.99 403.20 456.73 404.86 456.34 406.49 C 455.61 409.57 454.64 412.59 453.31 415.46 C 447.92 428.97 438.02 440.89 425.47 448.32 C 422.34 450.47 418.85 451.99 415.47 453.69 C 414.41 454.01 413.36 454.36 412.33 454.73 C 411.87 454.86 410.96 455.12 410.50 455.24 C 408.78 455.79 407.02 456.20 405.31 456.77 C 404.07 456.92 402.84 457.06 401.62 457.23 C 397.94 458.64 393.90 457.79 390.07 458.00 C 386.19 457.78 382.10 458.65 378.39 457.23 C 377.15 457.06 375.92 456.91 374.70 456.76 C 372.99 456.20 371.24 455.81 369.53 455.32 C 368.50 454.96 367.49 454.59 366.49 454.20 C 366.01 454.10 365.04 453.88 364.55 453.77 C 361.20 451.97 357.67 450.49 354.53 448.32 C 341.98 440.89 332.08 428.98 326.69 415.46 C 325.36 412.59 324.38 409.57 323.66 406.50 C 323.26 404.86 322.99 403.20 322.69 401.56 C 321.51 397.49 322.14 393.22 322.00 389.06 C 322.06 385.52 321.64 381.88 322.69 378.44 C 322.99 376.79 323.26 375.13 323.66 373.50 C 324.38 370.43 325.36 367.41 326.69 364.54 C 331.90 351.36 341.49 339.86 353.45 332.26 C 357.01 329.98 360.82 328.15 364.57 326.22 C 365.06 326.11 366.02 325.91 366.50 325.81 C 367.50 325.40 368.51 325.01 369.53 324.65 C 370.82 324.27 372.14 323.97 373.46 323.65 C 375.08 323.21 376.74 322.97 378.40 322.69 Z" />
</g>
<g id="#30a5e1ff">
<path fill="#30a5e1" opacity="1.00" d=" M 336.21 199.46 C 372.01 197.01 407.98 197.03 443.78 199.46 C 454.97 212.67 466.31 225.83 476.22 240.05 C 418.98 233.48 360.99 233.54 303.76 240.08 C 313.60 225.80 325.04 212.71 336.21 199.46 Z" />
<path fill="#30a5e1" opacity="1.00" d=" M 594.68 300.26 C 606.97 302.84 618.81 307.03 630.53 311.47 C 623.57 338.25 614.56 364.44 604.37 390.15 C 597.40 406.47 590.55 422.86 582.54 438.71 C 566.77 470.80 548.84 501.84 528.79 531.45 C 518.87 546.41 507.89 560.61 497.14 574.96 C 486.54 588.44 475.44 601.52 463.87 614.17 C 459.33 611.26 454.31 609.20 449.89 606.11 C 443.92 601.95 437.41 598.42 432.37 593.08 C 436.25 588.96 439.99 584.70 443.88 580.58 C 455.61 567.69 466.55 554.07 476.76 539.95 C 511.48 493.58 540.74 443.09 563.70 389.90 C 570.63 373.97 577.14 357.82 582.59 341.32 C 586.85 327.70 591.27 314.12 594.68 300.26 Z" />
<path fill="#30a5e1" opacity="1.00" d=" M 197.52 438.63 C 203.41 422.46 208.89 406.03 216.58 390.61 C 239.47 443.51 268.67 493.66 303.09 539.88 C 304.86 542.68 306.95 545.30 308.49 548.25 C 308.84 549.96 307.00 550.94 306.10 552.10 C 299.18 558.54 293.09 565.85 285.60 571.64 C 284.37 572.65 283.21 573.74 282.08 574.85 C 281.12 571.53 278.80 568.95 276.65 566.36 C 267.74 554.76 259.21 542.88 250.82 530.90 C 231.01 501.39 212.99 470.64 197.52 438.63 Z" />
</g>
</svg>
